<?xml version="1.0" encoding="utf-8"?>
<!-- Generator: Adobe Illustrator 25.2.3, SVG Export Plug-In . SVG Version: 6.00 Build 0)  -->
<svg version="1.1" id="Optimiert" xmlns="http://www.w3.org/2000/svg" xmlns:xlink="http://www.w3.org/1999/xlink" x="0px" y="0px"
	 viewBox="0 0 284.37 51.65" enable-background="new 0 0 284.37 51.65" xml:space="preserve">
<path fill="#FFFFFF" d="M5.95,0.25L0.3,51.65h36.29l5.66-51.39H5.95z M33.59,47.39H6.96v-6.66h19.97v-9.99h6.66L33.59,47.39z
	 M16.95,37.41v-6.66h6.66v6.66H16.95z M33.59,27.42H13.62v9.99H6.96V20.77h26.63V27.42z"/>
<polygon fill="#FFFFFF" points="206.8,37.44 223.55,37.44 223.55,32.53 206.8,32.53 206.8,26.56 224.57,26.56 224.57,20.94 
	200.3,20.94 200.3,49.02 225,49.02 225,43.4 206.8,43.4 "/>
<polygon fill="#FFFFFF" points="274.67,20.94 264.16,32.52 263.36,32.52 263.36,20.94 256.89,20.94 256.89,49.01 263.36,49.01 
	263.36,37.43 264.15,37.43 275.23,49.01 284.23,49.01 269.76,34.78 282.75,20.94 "/>
<path fill="#FFFFFF" d="M144.13,43.4V26.56h10.02c4.8,0,5.81,4.52,5.81,8.46c0,3.9-1.23,8.38-6.03,8.38H144.13z M153.82,20.95
	h-16.19v28.08h16.19c9.49,0,12.61-5.36,12.61-14C166.44,26.33,163.31,20.95,153.82,20.95z"/>
<path fill="#FFFFFF" d="M101.01,20.93c-1.99-0.18-3.99-0.32-5.98-0.31c-1.99,0-4,0.14-5.98,0.31c-5.64,0.51-9.4,3.11-9.4,10.37v7.34
	c0,1.98,0.42,3.97,1.45,5.68c1.36,2.25,3.67,3.79,6.18,4.48c1.38,0.38,2.83,0.39,4.26,0.45c1.18,0.03,2.33,0.05,3.49,0.05
	c1.16,0,2.31-0.02,3.49-0.05c1.42-0.06,2.87-0.07,4.26-0.45c2.51-0.69,4.82-2.23,6.18-4.48c1.03-1.71,1.45-3.7,1.45-5.68V31.3
	C110.41,24.04,106.65,21.44,101.01,20.93z M103.74,37.88c0,4.12-0.79,5.27-3.85,5.58c-1.6,0.17-3.6,0.24-4.87,0.24
	s-3.26-0.07-4.87-0.24c-3.06-0.31-3.85-1.46-3.85-5.58v-6.3c0-2.92,0.25-4.73,3.78-5.11c1.49-0.16,3.06-0.24,4.93-0.24
	s3.44,0.08,4.93,0.24c3.53,0.38,3.78,2.19,3.78,5.11V37.88z"/>
<path fill="#FFFFFF" d="M121.86,43.39c-0.46,0-0.9,0-1.29-0.31c-0.54-0.42-0.56-1.1-0.56-1.72V20.93h-6.5v20.22
	c0,2.42,0.09,5.05,2.16,6.67c1.5,1.17,3.21,1.19,5,1.19h13.91v-5.62H121.86z"/>
<path fill="#FFFFFF" d="M193.03,35.4l-1.02-0.2l0-0.43l0.99-0.35c1.78-0.64,3.25-1.55,3.25-6.29c0-5.1-3.93-7.18-10.03-7.18h-16.69
	v28.08h18.8c3,0,8.81-0.95,8.81-7.3C197.14,37.77,195.99,36,193.03,35.4z M176.03,26.57h11.05c2.35,0,2.82,1.57,2.82,3.06
	c0,1.52-0.64,2.9-2.82,2.9h-11.05V26.57z M187.61,43.41h-11.58v-5.97l11.58,0c2.35,0,2.82,1.57,2.82,3.06
	C190.43,42.02,189.79,43.41,187.61,43.41z"/>
<path fill="#FFFFFF" d="M236.75,43.05L236.75,43.05c-2.02-0.94-2.22-3.04-2.22-5.89V32.8c0-2.84,0.19-4.95,2.22-5.89l0,0
	c0,0,3.76-1.9,15.88,0.47l0.76-5.43c-0.44-0.09-5.41-1.17-9.95-1.3c-2.33-0.07-4.77-0.06-7.07,0.4c-0.99,0.18-1.95,0.44-2.87,0.8
	c-4.1,1.61-5.64,5.5-5.64,9.69v6.89c0,4.18,1.54,8.08,5.64,9.69c0.92,0.36,1.88,0.62,2.87,0.8c2.3,0.46,4.74,0.47,7.07,0.4
	c4.54-0.13,9.5-1.21,9.95-1.3l-0.76-5.43C240.52,44.95,236.75,43.05,236.75,43.05z"/>
<path fill="#FFFFFF" d="M62.89,32.48v4.95h7.73v3.84c0,0,0.03,0.95-0.45,1.49c-0.44,0.5-1,0.69-1.8,0.78
	c-1.6,0.18-3.21,0.19-4.81,0.17c-1.69-0.02-3.37-0.07-5.06-0.24c-4.08-0.41-4.72-2.3-4.72-6.53v-3.86c0-3.27,0.32-5.48,3.02-6.29
	c0,0,1.57-0.47,5.97-0.54c0.01,0,1.83-0.01,1.95,0c2.87,0.05,6.23,0.34,9.73,1.15l1.16-5.01c-4.7-1.35-9.28-1.71-12.9-1.7v0
	c0,0-3.76,0-6.88,0.47c-1.62,0.24-3.25,0.69-4.62,1.62c-2.49,1.73-3.92,4.82-3.92,8.96v6.47c0,4.73,1.47,7.97,4.36,9.56
	c2.28,1.31,4.9,1.48,7.52,1.51c0.44,0,2.28,0.05,4.06,0.05c1.63,0,3.2-0.05,4.11-0.05c2.26,0,5.03-0.32,6.83-1.82
	c1.84-1.53,2.32-3.81,2.32-6.09v-8.89H62.89z"/>
</svg>
